<svg width="24" height="24" viewBox="0 0 24 24" fill="none" xmlns="http://www.w3.org/2000/svg">
<path fill-rule="evenodd" clip-rule="evenodd" d="M10.405 6.02773C10.3167 6.00653 10.2113 6.0001 9.67452 6.0001H6.2C5.62345 6.0001 5.25117 6.00088 4.96784 6.02403C4.69617 6.04622 4.59546 6.0839 4.54601 6.1091C4.35785 6.20497 4.20487 6.35795 4.109 6.54611C4.0838 6.59556 4.04612 6.69627 4.02393 6.96794C4.00078 7.25127 4 7.62355 4 8.2001V15.8001C4 16.3767 4.00078 16.7489 4.02393 17.0323C4.04612 17.3039 4.0838 17.4046 4.109 17.4541C4.20487 17.6423 4.35785 17.7952 4.54601 17.8911C4.59546 17.9163 4.69617 17.954 4.96784 17.9762C5.25117 17.9993 5.62345 18.0001 6.2 18.0001H17.8C18.3766 18.0001 18.7488 17.9993 19.0322 17.9762C19.3038 17.954 19.4045 17.9163 19.454 17.8911C19.6422 17.7952 19.7951 17.6423 19.891 17.4541C19.9162 17.4046 19.9539 17.3039 19.9761 17.0323C19.9992 16.7489 20 16.3767 20 15.8001V10.2001C20 9.62355 19.9992 9.25128 19.9761 8.96794C19.9539 8.69627 19.9162 8.59556 19.891 8.54611C19.7951 8.35795 19.6422 8.20497 19.454 8.1091C19.4045 8.0839 19.3038 8.04622 19.0322 8.02403C18.7488 8.00088 18.3766 8.0001 17.8 8.0001H14.3255C14.2975 8.0001 14.2697 8.00013 14.2422 8.00015C13.8353 8.00053 13.4765 8.00087 13.1281 7.91721C12.822 7.84372 12.5294 7.72251 12.2609 7.55802C11.9554 7.37079 11.702 7.11688 11.4145 6.82889C11.395 6.8094 11.3754 6.78975 11.3556 6.76995L11.2302 6.64447C10.8506 6.26491 10.7715 6.19492 10.6941 6.14746C10.6046 6.09263 10.5071 6.05223 10.405 6.02773ZM9.75782 4.00005C10.1647 3.99967 10.5235 3.99934 10.8719 4.08299C11.178 4.15648 11.4707 4.2777 11.7391 4.44218C12.0446 4.62942 12.298 4.88332 12.5855 5.17131C12.605 5.1908 12.6246 5.21046 12.6444 5.23025L12.7699 5.35574C13.1494 5.7353 13.2285 5.80528 13.3059 5.85274C13.3954 5.90757 13.4929 5.94798 13.595 5.97247C13.6833 5.99367 13.7887 6.0001 14.3255 6.0001L17.8385 6.0001C18.3657 6.00008 18.8205 6.00007 19.195 6.03067C19.5904 6.06297 19.9836 6.13429 20.362 6.32708C20.9265 6.6147 21.3854 7.07365 21.673 7.63813C21.8658 8.01651 21.9371 8.40973 21.9694 8.80507C22 9.17964 22 9.6344 22 10.1615V15.8387C22 16.3658 22 16.8206 21.9694 17.1951C21.9371 17.5905 21.8658 17.9837 21.673 18.3621C21.3854 18.9266 20.9265 19.3855 20.362 19.6731C19.9836 19.8659 19.5904 19.9372 19.195 19.9695C18.8205 20.0001 18.3657 20.0001 17.8385 20.0001H6.16148C5.63432 20.0001 5.17955 20.0001 4.80497 19.9695C4.40963 19.9372 4.01641 19.8659 3.63803 19.6731C3.07354 19.3855 2.6146 18.9266 2.32698 18.3621C2.13419 17.9837 2.06287 17.5905 2.03057 17.1951C1.99997 16.8206 1.99998 16.3658 2 15.8386V8.16156C1.99998 7.63441 1.99997 7.17965 2.03057 6.80507C2.06287 6.40973 2.13419 6.01651 2.32698 5.63813C2.6146 5.07364 3.07354 4.6147 3.63803 4.32708C4.01641 4.13429 4.40963 4.06297 4.80497 4.03067C5.17955 4.00007 5.63431 4.00008 6.16146 4.0001L9.67452 4.0001C9.70252 4.0001 9.73028 4.00008 9.75782 4.00005Z" fill="#303645"/>
</svg>
